<?xml version="1.0" standalone="no"?>
<!DOCTYPE svg PUBLIC "-//W3C//DTD SVG 20010904//EN"
 "http://www.w3.org/TR/2001/REC-SVG-20010904/DTD/svg10.dtd">
<svg version="1.0" xmlns="http://www.w3.org/2000/svg"
 width="1110.000000pt" height="1110.000000pt" viewBox="0 0 1110.000000 1110.000000"
 preserveAspectRatio="xMidYMid meet">
<metadata>
Created by potrace 1.11, written by Peter Selinger 2001-2013
</metadata>
<g transform="translate(0.000000,1110.000000) scale(0.100000,-0.100000)"
fill="#000000" stroke="none">
<path d="M6189 7995 c-3 -2 -21 -7 -40 -9 -88 -13 -258 -37 -289 -42 -19 -3
-46 -7 -60 -9 -14 -3 -47 -7 -75 -11 -27 -3 -61 -7 -75 -9 -22 -4 -480 -70
-555 -80 -16 -3 -127 -18 -245 -35 -118 -17 -231 -33 -250 -35 -19 -3 -46 -7
-60 -10 -14 -2 -47 -7 -75 -10 -43 -5 -256 -35 -353 -50 -18 -3 -52 -7 -75
-10 -23 -3 -51 -7 -62 -9 -26 -5 -90 -14 -140 -21 -22 -3 -116 -16 -210 -29
-93 -14 -192 -28 -220 -31 -27 -3 -61 -8 -75 -10 -14 -3 -41 -7 -60 -10 -19
-2 -132 -18 -250 -35 -118 -17 -233 -33 -255 -36 -22 -2 -51 -7 -65 -9 -14 -2
-43 -7 -65 -10 -22 -3 -67 -10 -100 -15 -33 -5 -80 -12 -105 -15 -46 -6 -114
-15 -140 -20 -8 -1 -40 -6 -70 -10 -68 -8 -108 -14 -140 -20 -14 -2 -47 -7
-75 -10 -27 -3 -61 -7 -75 -10 -14 -2 -45 -7 -70 -10 -25 -3 -70 -10 -100 -15
-30 -5 -77 -12 -105 -15 -27 -3 -61 -8 -75 -10 -14 -2 -92 -13 -175 -25 -214
-30 -214 -30 -280 -40 -33 -5 -78 -11 -100 -14 -68 -9 -441 -63 -495 -71 -14
-2 -47 -7 -75 -10 -27 -3 -61 -8 -75 -10 -14 -3 -38 -7 -55 -9 -16 -2 -50 -7
-75 -11 -69 -10 -91 -13 -145 -19 -27 -4 -63 -9 -79 -12 l-28 -6 5 -67 c3 -36
8 -82 12 -101 9 -52 53 -329 59 -375 3 -22 8 -51 11 -65 3 -14 8 -43 10 -65 3
-22 12 -78 20 -125 7 -47 16 -103 20 -125 6 -42 22 -143 29 -185 3 -14 12 -72
20 -130 9 -58 18 -114 20 -125 2 -11 9 -56 15 -100 7 -44 16 -102 21 -130 5
-27 12 -67 15 -87 15 -109 17 -113 55 -148 61 -56 201 -183 224 -203 44 -38
83 -73 146 -131 99 -90 146 -133 250 -226 82 -74 148 -133 210 -190 9 -8 56
-51 105 -95 115 -103 115 -103 167 -150 24 -22 84 -76 133 -120 50 -44 92 -82
95 -85 3 -3 50 -45 105 -95 55 -49 102 -93 105 -96 3 -3 32 -30 65 -59 121
-107 219 -195 239 -215 12 -11 86 -78 166 -150 80 -71 147 -132 150 -135 3 -3
50 -46 105 -95 55 -50 113 -102 130 -117 l30 -28 200 0 c110 0 227 4 260 10
33 5 91 11 128 15 38 3 110 9 160 15 95 9 170 16 272 25 33 3 81 7 108 10 26
3 68 7 95 10 26 3 76 7 112 10 36 3 85 7 110 10 25 3 70 7 100 10 30 3 75 7
100 10 25 2 74 7 110 10 36 3 85 8 110 10 25 3 70 7 100 10 103 9 175 16 210
20 19 2 71 7 115 10 44 3 91 8 105 10 14 3 61 7 105 10 44 3 91 8 105 10 14 3
59 7 100 10 41 3 86 7 100 10 14 2 63 7 110 10 47 3 101 8 120 10 19 3 64 7
100 10 36 4 83 8 105 10 22 2 67 6 100 9 33 3 85 8 115 11 102 10 155 15 220
20 36 3 81 8 100 10 19 3 62 7 95 10 33 3 80 7 105 10 25 2 74 7 110 10 36 3
81 8 100 10 19 2 64 7 100 10 105 9 183 16 220 20 19 2 64 7 100 10 36 3 85 8
110 10 25 3 72 7 105 10 33 3 83 7 110 10 28 3 70 7 95 9 162 15 207 19 224
22 10 2 55 6 100 9 44 4 95 8 111 10 17 2 66 7 110 10 44 4 91 8 105 10 14 2
60 6 103 10 43 3 86 8 95 10 9 1 58 6 109 9 51 4 101 9 112 11 10 2 54 6 98
10 155 12 179 15 222 20 26 4 52 14 62 26 9 11 138 144 285 296 148 152 303
311 344 354 95 98 565 582 645 665 396 407 553 571 555 579 3 10 -13 18 -345
190 -115 59 -264 136 -330 170 -66 34 -187 97 -270 140 -82 42 -222 115 -310
160 -88 45 -217 112 -286 148 -167 86 -158 82 -204 104 -22 12 -83 43 -135 70
-52 28 -180 94 -285 148 -104 54 -244 126 -310 160 -66 34 -210 108 -320 165
-110 56 -240 124 -290 150 -49 26 -180 94 -290 150 -110 57 -245 126 -300 155
-55 29 -185 96 -290 150 -277 142 -508 262 -603 311 -81 43 -84 44 -180 44
-54 0 -101 -2 -103 -5z"/>
</g>
</svg>
